<svg width="45" height="55" viewBox="0 0 45 55" fill="none" xmlns="http://www.w3.org/2000/svg">
<g clip-path="url(#clip0_98_383)">
<path d="M42.682 18.4625C42.3679 18.7062 36.8221 21.8311 36.8221 28.7796C36.8221 36.8167 43.8789 39.66 44.0901 39.7304C44.0576 39.9037 42.969 43.6243 40.3694 47.4154C38.0515 50.7516 35.6306 54.0823 31.9479 54.0823C28.2651 54.0823 27.3173 51.943 23.0659 51.943C18.9228 51.943 17.4497 54.1527 14.0811 54.1527C10.7125 54.1527 8.36201 51.0657 5.65952 47.2746C2.52918 42.8228 0 35.9068 0 29.3429C0 18.8145 6.84558 13.2308 13.5829 13.2308C17.1627 13.2308 20.1468 15.5813 22.3944 15.5813C24.5336 15.5813 27.8698 13.09 31.9424 13.09C33.486 13.09 39.0317 13.2308 42.682 18.4625ZM30.009 8.6328C31.6933 6.63437 32.8848 3.86147 32.8848 1.08858C32.8848 0.704055 32.8523 0.314117 32.7819 0C30.0415 0.1029 26.7812 1.82513 24.8152 4.10518C23.2717 5.85991 21.8311 8.6328 21.8311 11.4436C21.8311 11.866 21.9015 12.2885 21.934 12.4239C22.1073 12.4564 22.389 12.4943 22.6706 12.4943C25.1294 12.4943 28.2218 10.8479 30.009 8.6328Z" fill="black"/>
</g>
<defs>
<clipPath id="clip0_98_383">
<rect width="44.0847" height="54.1581" fill="white"/>
</clipPath>
</defs>
</svg>
