<svg width="237" height="78" viewBox="0 0 237 78" fill="none" xmlns="http://www.w3.org/2000/svg">
<path d="M223.511 78H13.4893C6.03937 78 0 72.01 0 64.6207V13.3793C0 5.99001 6.03937 0 13.4893 0H223.511C230.961 0 237 5.99001 237 13.3793V64.6207C237 72.01 230.961 78 223.511 78Z" fill="black"/>
<path d="M54.8918 40.2577C54.8918 36.3597 56.8758 32.9221 59.8965 30.8822C57.2069 27.613 53.0918 25.5222 48.4792 25.5222C47.0887 25.5222 45.7439 25.9603 44.4691 26.4297C42.5286 27.1442 40.3918 27.1442 38.4513 26.4297C37.1764 25.9603 35.8316 25.5222 34.4411 25.5222C26.3379 25.5222 19.7695 31.9754 19.7695 39.9355C19.7695 47.8955 26.3379 63.5777 34.4411 63.5777C36.0697 63.5777 37.6362 62.8196 39.1 62.3384C40.6321 61.8343 42.2883 61.8343 43.8204 62.3384C45.2842 62.8196 46.8507 63.5777 48.4792 63.5777C53.7168 63.5777 58.3131 57.026 60.909 50.2426C57.3265 48.3297 54.8918 44.5754 54.8918 40.2577Z" fill="white"/>
<path d="M47.8042 21.7909C45.7283 24.1397 43.05 25.4377 40.7936 25.417C40.4771 23.2008 41.4243 20.3972 43.5007 18.0484C45.5771 15.6996 48.2554 14.4015 50.5113 14.4228C50.8277 16.6384 49.8806 19.4421 47.8042 21.7909Z" fill="white"/>
<path d="M83.3209 25.5003C82.8628 25.5003 82.2169 25.4919 81.7583 25.4231V15.5457C82.1244 15.4741 82.7196 15.3968 83.5883 15.3968C85.2772 15.3968 86.5768 15.8388 87.4501 16.7105C88.2765 17.5353 88.6905 18.7102 88.6809 20.2024C88.6809 23.6187 86.7777 25.5003 83.3209 25.5003ZM88.8005 15.4808C87.621 14.3903 85.8909 13.8599 83.5115 13.8599C82.3377 13.8599 81.144 13.9494 79.964 14.1262L79.8652 14.1408V26.8923L79.9685 26.9041C80.8643 27.0048 81.883 27.0563 82.9965 27.0563C85.5372 27.0563 87.5324 26.4095 88.765 25.187C89.9986 23.9829 90.6507 22.2395 90.6507 20.1459C90.6507 18.1664 90.028 16.5964 88.8005 15.4808Z" fill="white"/>
<path d="M96.5836 18.8227C98.4045 18.8227 99.2337 20.5879 99.2337 22.2278C99.2337 24.2225 98.1033 25.6704 96.5452 25.6704C94.9872 25.6704 93.8568 24.2387 93.8568 22.2653C93.8568 20.5521 94.6995 18.8227 96.5836 18.8227ZM96.6214 17.3423C95.3144 17.3423 94.1315 17.81 93.2898 18.6593C92.3969 19.5601 91.9253 20.8268 91.9253 22.3224C91.9253 25.1652 93.7936 27.1509 96.4691 27.1509C97.6982 27.1509 98.84 26.7273 99.6844 25.9586C100.665 25.0656 101.184 23.7558 101.184 22.1708C101.184 20.7653 100.749 19.5601 99.9247 18.6851C99.0972 17.8067 97.9549 17.3423 96.6214 17.3423Z" fill="white"/>
<path d="M112.328 22.2346C112.095 23.057 111.861 23.9293 111.694 24.7993C111.504 24.0115 111.27 23.1779 110.968 22.2127L109.511 17.551H107.928L106.395 22.3073C106.136 23.1415 105.869 23.9998 105.666 24.8166C105.501 24.0054 105.287 23.184 105.061 22.3213L103.81 17.551H101.846L104.702 26.9427H106.399L107.914 22.5098C108.172 21.7271 108.438 20.8738 108.663 19.8998C108.868 20.7888 109.106 21.5911 109.39 22.4902L110.829 26.9427H112.525L115.577 17.551H113.669L112.328 22.2346Z" fill="white"/>
<path d="M121.697 17.3423C120.231 17.3423 119.222 18.0825 118.701 18.8568L118.619 17.551H116.896L116.905 17.6752C116.958 18.3796 116.981 19.1187 116.981 20.1459V26.9427H118.893V21.3192C118.893 21.0378 118.932 20.7692 119.002 20.5768C119.252 19.77 120.01 18.9553 121.143 18.9553C122.813 18.9553 123.164 20.3641 123.164 21.5464V26.9427H125.076V21.3573C125.076 17.5359 122.261 17.3423 121.697 17.3423Z" fill="white"/>
<path d="M127.571 26.9427H129.483V13.273H127.571V26.9427Z" fill="white"/>
<path d="M136.066 18.8227C137.886 18.8227 138.716 20.5879 138.716 22.2278C138.716 24.2225 137.585 25.6704 136.027 25.6704C134.469 25.6704 133.339 24.2387 133.339 22.2653C133.339 20.5521 134.181 18.8227 136.066 18.8227ZM136.103 17.3423C134.796 17.3423 133.613 17.81 132.772 18.6593C131.879 19.5601 131.407 20.8268 131.407 22.3224C131.407 25.1652 133.276 27.1509 135.951 27.1509C137.18 27.1509 138.322 26.7273 139.166 25.9586C140.147 25.0656 140.666 23.7558 140.666 22.1708C140.666 20.7653 140.231 19.5601 139.406 18.6851C138.579 17.8067 137.437 17.3423 136.103 17.3423Z" fill="white"/>
<path d="M145.206 25.6895C144.497 25.6895 143.738 25.3023 143.738 24.2152C143.738 23.748 143.894 23.3603 144.199 23.0637C144.745 22.5328 145.775 22.2648 147.262 22.2648C147.313 22.2648 147.365 22.2648 147.417 22.2659V23.7418C147.417 23.8884 147.386 24.0636 147.328 24.2348C147.098 24.9056 146.403 25.6895 145.206 25.6895ZM149.273 24.6314V21.2056C149.273 19.4432 148.643 17.3423 145.645 17.3423C144.497 17.3423 143.368 17.6461 142.547 18.1748L142.471 18.224L142.931 19.5467L143.056 19.4667C143.702 19.0515 144.578 18.8037 145.397 18.8037C146.712 18.8037 147.38 19.4784 147.38 20.8084V20.8817C145.215 20.8873 143.595 21.3606 142.69 22.2536C142.117 22.8187 141.826 23.5421 141.826 24.4043C141.826 25.7269 142.747 27.1509 144.767 27.1509C145.885 27.1509 146.912 26.6887 147.559 25.906L147.678 26.9427H149.448L149.423 26.8062C149.322 26.2529 149.273 25.5412 149.273 24.6314Z" fill="white"/>
<path d="M155.625 25.5759C153.697 25.5759 153.013 23.8129 153.013 22.3034C153.013 20.2556 154.078 18.8798 155.663 18.8798C156.961 18.8798 157.758 19.8041 157.974 20.725C158.02 20.8895 158.047 21.1396 158.047 21.3947V22.9848C158.047 23.2629 158.024 23.4761 157.973 23.6769C157.696 24.8127 156.752 25.5759 155.625 25.5759ZM159.959 24.4614V13.273H158.047V18.529C157.48 17.7804 156.493 17.3423 155.339 17.3423C154.268 17.3423 153.26 17.7597 152.501 18.5178C151.576 19.441 151.072 20.8129 151.081 22.3789C151.081 25.1439 152.792 27.1509 155.148 27.1509C156.451 27.1509 157.603 26.5561 158.234 25.5787L158.3 26.9427H160.046L160.035 26.8169C159.969 26.0962 159.959 25.0315 159.959 24.4614Z" fill="white"/>
<path d="M170.547 18.8227C172.368 18.8227 173.198 20.5879 173.198 22.2278C173.198 24.2225 172.067 25.6704 170.509 25.6704C168.951 25.6704 167.821 24.2387 167.821 22.2653C167.821 20.5521 168.664 18.8227 170.547 18.8227ZM170.586 17.3423C169.278 17.3423 168.095 17.81 167.254 18.6593C166.361 19.5601 165.889 20.8268 165.889 22.3224C165.889 25.1652 167.757 27.1509 170.433 27.1509C171.662 27.1509 172.804 26.7273 173.648 25.9586C174.63 25.0656 175.148 23.7558 175.148 22.1708C175.148 20.7653 174.713 19.5601 173.889 18.6851C173.061 17.8067 171.919 17.3423 170.586 17.3423Z" fill="white"/>
<path d="M181.749 17.3423C180.284 17.3423 179.275 18.0825 178.754 18.8568L178.672 17.551H176.948L176.957 17.6752C177.011 18.3796 177.033 19.1187 177.033 20.1459V26.9427H178.946V21.3192C178.946 21.0372 178.985 20.7692 179.055 20.5768C179.304 19.77 180.063 18.9553 181.195 18.9553C182.866 18.9553 183.216 20.3641 183.216 21.5464V26.9427H185.129V21.3573C185.129 17.5359 182.313 17.3423 181.749 17.3423Z" fill="white"/>
<path d="M193.925 14.885L192.051 15.3818V17.551H190.62V19.0499H192.051V23.931C192.051 25.1334 192.268 25.9167 192.729 26.3922C193.156 26.8762 193.813 27.1319 194.629 27.1319C195.246 27.1319 195.79 27.048 196.162 26.8958L196.239 26.8645L196.149 25.3913L196.011 25.4288C195.826 25.4786 195.513 25.5379 195.068 25.5379C194.267 25.5379 193.925 25.0405 193.925 23.8745V19.0499H196.33V17.551H193.925V14.885Z" fill="white"/>
<path d="M204.895 18.1463C204.087 17.4206 203.118 17.3423 202.739 17.3423C202.136 17.3423 201.522 17.5112 200.965 17.8302C200.542 18.0635 200.172 18.3897 199.898 18.7684V13.273H197.986V26.9427H199.898V21.3002C199.898 20.9919 199.916 20.7586 200.004 20.5499L200.006 20.5421C200.272 19.752 201.037 18.9553 202.148 18.9553C203.906 18.9553 204.168 20.5907 204.168 21.5654V26.9427H206.081V21.3757C206.081 19.9389 205.682 18.8524 204.895 18.1463Z" fill="white"/>
<path d="M209.781 21.2415C209.933 20.2651 210.593 18.7662 212.223 18.7662C212.855 18.7662 213.366 18.9581 213.741 19.3369C214.339 19.9412 214.427 20.8448 214.435 21.2415H209.781ZM215.494 18.9207C214.807 17.8884 213.723 17.3423 212.357 17.3423C209.738 17.3423 207.909 19.4214 207.909 22.398C207.909 23.7995 208.337 24.984 209.146 25.8232C209.971 26.6793 211.154 27.1319 212.567 27.1319C214.079 27.1319 215.099 26.8175 215.688 26.5539L215.775 26.5148L215.434 25.0964L215.308 25.1496C214.735 25.3907 214.034 25.614 212.796 25.614C210.957 25.614 209.824 24.514 209.748 22.6648H216.221L216.242 22.4847C216.262 22.3107 216.29 22.0729 216.29 21.7736C216.29 21.2762 216.213 20.0022 215.494 18.9207Z" fill="white"/>
<path d="M87.8118 38.2217C88.1023 39.3424 88.4142 40.5039 88.8457 41.76L91.0119 48.0756H84.6432L86.8116 41.722C87.1461 40.6763 87.4677 39.5511 87.8118 38.2217ZM89.8442 34.6924H85.9491L77.9644 58.0012H81.4894L83.8868 50.8004H91.7706L94.2362 58.0012H97.8634L89.8921 34.8328L89.8442 34.6924Z" fill="white"/>
<path d="M108.496 43.565C111.758 43.565 113.218 46.532 113.218 49.4716C113.218 53.2623 111.37 55.6166 108.393 55.6166C106.342 55.6166 104.608 54.2761 104.077 52.2803C104.01 51.9139 103.945 51.5211 103.945 51.1026V48.2833C103.945 47.886 104.051 47.4502 104.144 47.1117C104.686 45.0236 106.476 43.565 108.496 43.565ZM109.421 40.7725C106.962 40.7725 104.976 41.7561 103.644 43.6237L103.524 41.1463H100.401L100.41 41.3628C100.483 43.0072 100.547 44.6543 100.547 46.7206V64.727H103.945V56.1566C105.029 57.5553 106.841 58.375 108.907 58.375C110.991 58.375 112.903 57.5704 114.29 56.1101C115.834 54.4853 116.65 52.1427 116.65 49.3362C116.65 46.8974 115.92 44.7008 114.593 43.1515C113.279 41.6174 111.442 40.7725 109.421 40.7725Z" fill="white"/>
<path d="M127.982 43.565C131.244 43.565 132.705 46.532 132.705 49.4716C132.705 53.2623 130.855 55.6166 127.879 55.6166C125.828 55.6166 124.094 54.2761 123.563 52.2803C123.496 51.9139 123.431 51.5211 123.431 51.1026V48.2833C123.431 47.886 123.537 47.4502 123.63 47.1117C124.172 45.0236 125.962 43.565 127.982 43.565ZM128.907 40.7725C126.448 40.7725 124.463 41.7561 123.13 43.6237L123.01 41.1463H119.887L119.897 41.3628C119.968 43.0072 120.033 44.6543 120.033 46.7206V64.727H123.431V56.1566C124.515 57.5553 126.327 58.375 128.393 58.375C130.478 58.375 132.389 57.5704 133.776 56.1101C135.32 54.4853 136.136 52.1427 136.136 49.3362C136.136 46.8974 135.405 44.7008 134.079 43.1515C132.765 41.6174 130.929 40.7725 128.907 40.7725Z" fill="white"/>
<path d="M154.084 44.6252C150.711 43.3299 149.629 42.3038 149.629 40.4026C149.629 38.798 150.909 37.1793 153.769 37.1793C155.687 37.1793 157.157 37.7568 158.052 38.2407L158.271 38.3588L159.227 35.5512L159.077 35.4667C158.315 35.0381 156.624 34.3186 153.871 34.3186C151.643 34.3186 149.723 34.9486 148.32 36.1392C146.951 37.3013 146.197 38.9362 146.197 40.7423C146.197 43.8061 148.178 45.9294 152.427 47.4233C155.499 48.596 156.642 49.7771 156.642 51.7818C156.642 54.0634 154.872 55.4806 152.022 55.4806C150.247 55.4806 148.291 54.9334 146.789 54.017L146.558 53.8754L145.682 56.7602L145.81 56.8452C147.121 57.7119 149.647 58.3408 151.817 58.3408C154.417 58.3408 156.569 57.6409 158.04 56.3171C159.373 55.1169 160.108 53.4217 160.108 51.544C160.108 49.8431 159.606 48.4684 158.572 47.341C157.611 46.2925 156.185 45.4292 154.084 44.6252Z" fill="white"/>
<path d="M167.609 36.3619L164.246 37.2543V41.1462H161.677V43.8369H164.246V52.597C164.246 54.7516 164.633 56.1559 165.465 57.017C166.231 57.8831 167.41 58.3408 168.872 58.3408C169.978 58.3408 170.955 58.1908 171.623 57.9178L171.761 57.8613L171.6 55.2171L171.351 55.2842C171.02 55.3738 170.458 55.4806 169.66 55.4806C168.222 55.4806 167.609 54.5877 167.609 52.4951V43.8369H171.924V41.1462H167.609V36.3619Z" fill="white"/>
<path d="M181.783 55.7185C178.988 55.7185 176.958 53.1487 176.958 49.6076C176.958 46.5326 178.471 43.429 181.852 43.429C185.12 43.429 186.609 46.5969 186.609 49.5399C186.609 53.1201 184.579 55.7185 181.783 55.7185ZM181.92 40.7725C179.575 40.7725 177.451 41.6118 175.941 43.1358C174.339 44.7522 173.492 47.0255 173.492 49.7094C173.492 54.8115 176.845 58.375 181.646 58.375C183.852 58.375 185.901 57.6152 187.417 56.2354C189.178 54.6325 190.109 52.282 190.109 49.4381C190.109 46.9158 189.327 44.7522 187.848 43.1823C186.363 41.6062 184.313 40.7725 181.92 40.7725Z" fill="white"/>
<path d="M201.029 40.7725C199.098 40.7725 197.375 41.9771 196.49 43.8928L196.403 41.1462H193.34L193.355 41.3672C193.449 42.7721 193.492 44.3499 193.492 46.4828V58.0012H196.889V49.0302C196.889 48.5361 196.957 48.0661 197.023 47.6745C197.431 45.4466 198.937 44.0064 200.858 44.0064C201.238 44.0064 201.532 44.0355 201.84 44.1038L202.095 44.1597V40.9202L201.936 40.881C201.622 40.8033 201.368 40.7725 201.029 40.7725Z" fill="white"/>
<path d="M210.893 43.3272C212.026 43.3272 212.943 43.6718 213.616 44.3516C214.69 45.4359 214.848 47.0579 214.862 47.7701H206.509C206.782 46.0172 207.966 43.3272 210.893 43.3272ZM216.761 43.6047C215.529 41.7522 213.583 40.7725 211.132 40.7725C208.754 40.7725 206.728 41.6884 205.274 43.4206C203.904 45.0526 203.15 47.3349 203.15 49.8453C203.15 52.3603 203.917 54.4864 205.37 55.9926C206.85 57.529 208.974 58.3408 211.509 58.3408C214.223 58.3408 216.052 57.7768 217.109 57.3035L217.266 57.233L216.655 54.6878L216.428 54.784C215.4 55.216 214.142 55.6166 211.92 55.6166C208.619 55.6166 206.587 53.6432 206.45 50.3248H218.066L218.087 50.1402C218.092 50.0971 218.097 50.0501 218.103 50.0003C218.14 49.6881 218.191 49.2607 218.191 48.7246C218.191 47.8317 218.052 45.5461 216.761 43.6047Z" fill="white"/>
</svg>
