<svg width="20" height="20" viewBox="0 0 20 20" fill="none" xmlns="http://www.w3.org/2000/svg">
<path d="M10.0011 1.29028C5.19833 1.29028 1.29205 5.19729 1.29205 9.99978C1.29205 14.8025 5.19833 18.7095 10.0011 18.7095C14.8017 18.7095 18.7101 14.8025 18.7101 9.99978C18.7101 5.19729 14.8017 1.29028 10.0011 1.29028ZM10.0011 20C7.32882 20 4.8178 18.9598 2.93023 17.0709C1.04052 15.1822 0 12.6709 0 9.99978C0 7.3289 1.04052 4.81762 2.93023 2.92889C4.8178 1.04016 7.32882 0 10.0011 0C12.6712 0 15.1822 1.04016 17.0719 2.92889C18.9595 4.81762 20 7.3289 20 9.99978C20 12.6709 18.9595 15.1822 17.0719 17.0709C15.1822 18.9598 12.6712 20 10.0011 20Z" fill="url(#paint0_linear_1_278)"/>
<path d="M7.94782 10.6259C7.94782 11.1534 8.0541 11.5415 8.26876 11.7905C8.48129 12.0397 8.74695 12.1643 9.06363 12.1643C9.29954 12.1643 9.52057 12.1063 9.72886 11.9899C9.88613 11.9069 10.0434 11.7762 10.1964 11.5976C10.4153 11.3443 10.6066 10.9748 10.766 10.4889C10.9254 10.003 11.0062 9.55055 11.0062 9.1312C11.0062 8.66202 10.8957 8.30184 10.6789 8.05067C10.4621 7.79949 10.1858 7.6738 9.85426 7.6738C9.4972 7.6738 9.16566 7.81185 8.86386 8.08794C8.55993 8.36425 8.3325 8.75759 8.17735 9.26817C8.02433 9.77896 7.94782 10.2315 7.94782 10.6259ZM14.6809 13.1857H16.0071C15.5906 14.0285 14.9551 14.6888 14.0943 15.1663C13.1103 15.7143 11.9116 15.9885 10.494 15.9885C9.12526 15.9885 7.94144 15.7568 6.94465 15.2939C5.94786 14.831 5.20825 14.1479 4.72154 13.2449C4.23484 12.3418 3.99255 11.3588 3.99255 10.2958C3.99255 9.12904 4.26885 8.04222 4.82144 7.03536C5.37403 6.02851 6.12853 5.27283 7.08919 4.76853C8.04772 4.26402 9.14439 4.01177 10.3771 4.01177C11.4228 4.01177 12.3537 4.21526 13.1677 4.62204C13.9796 5.02902 14.6023 5.60722 15.0316 6.35661C15.4609 7.10601 15.6777 7.92498 15.6777 8.8135C15.6777 9.87237 15.3504 10.8294 14.6979 11.6847C13.8797 12.7644 12.8319 13.304 11.5545 13.304C11.2102 13.304 10.9488 13.244 10.7745 13.1235C10.6003 13.003 10.4855 12.8266 10.426 12.5941C9.93716 13.0674 9.37181 13.304 8.73208 13.304C8.04347 13.304 7.47175 13.0663 7.01692 12.5908C6.5621 12.1156 6.33469 11.4834 6.33469 10.6944C6.33469 9.71871 6.60885 8.82824 7.15719 8.0225C7.82029 7.04273 8.67257 6.55274 9.70974 6.55274C10.4494 6.55274 10.9956 6.83512 11.3484 7.39966L11.5035 6.70834H13.1486L12.207 11.1739C12.1496 11.4563 12.1199 11.639 12.1199 11.722C12.1199 11.8258 12.1433 11.9038 12.1921 11.9556C12.241 12.0076 12.2963 12.0334 12.3643 12.0334C12.5619 12.0334 12.8213 11.9132 13.1358 11.6722C13.5588 11.3569 13.9009 10.9332 14.1623 10.4018C14.4238 9.87041 14.5555 9.32018 14.5555 8.7513C14.5555 7.72993 14.1857 6.87564 13.4482 6.18844C12.7086 5.50124 11.6757 5.15753 10.3516 5.15753C9.22729 5.15753 8.273 5.38703 7.49087 5.84582C6.70662 6.30482 6.1179 6.95041 5.72046 7.78281C5.32514 8.61521 5.12748 9.48206 5.12748 10.3829C5.12748 11.2591 5.34852 12.0564 5.79059 12.7746C6.23266 13.493 6.85328 14.017 7.65241 14.3473C8.45154 14.6773 9.36543 14.8423 10.3962 14.8423C11.3888 14.8423 12.241 14.7042 12.9552 14.4281C13.6693 14.152 14.2431 13.7379 14.6809 13.1857Z" fill="url(#paint1_linear_1_278)"/>
<defs>
<linearGradient id="paint0_linear_1_278" x1="1.35371e-07" y1="9.88506" x2="20" y2="9.88506" gradientUnits="userSpaceOnUse">
<stop stop-color="#7308FF"/>
<stop offset="1" stop-color="#A74AF9"/>
</linearGradient>
<linearGradient id="paint1_linear_1_278" x1="3.99255" y1="9.93129" x2="16.0071" y2="9.93129" gradientUnits="userSpaceOnUse">
<stop stop-color="#7308FF"/>
<stop offset="1" stop-color="#A74AF9"/>
</linearGradient>
</defs>
</svg>
