<svg width="19" height="19" viewBox="0 0 19 19" fill="none" xmlns="http://www.w3.org/2000/svg">
<path d="M9.50081 1.22587C4.9381 1.22587 1.22606 4.93765 1.22606 9.50008C1.22606 14.0623 4.9381 17.7741 9.50081 17.7741C14.0619 17.7741 17.7739 14.0623 17.7739 9.50008C17.7739 4.93765 14.0619 1.22587 9.50081 1.22587ZM9.50081 19C6.96329 19 4.57721 18.0119 2.78242 16.2176C0.989234 14.4231 0 12.0376 0 9.50008C0 6.96242 0.989234 4.57673 2.78242 2.78244C4.57721 0.988157 6.96329 0 9.50081 0C12.0383 0 14.4228 0.988157 16.2176 2.78244C18.0124 4.57673 19 6.96242 19 9.50008C19 12.0376 18.0124 14.4231 16.2176 16.2176C14.4228 18.0119 12.0383 19 9.50081 19Z" fill="url(#paint0_linear_5_84)"/>
<path fill-rule="evenodd" clip-rule="evenodd" d="M11.4064 5.43428C11.787 5.42161 12.1675 5.43139 12.5481 5.43075C12.5937 5.43075 12.6409 5.43075 12.7053 5.43075V3.45322C12.5009 3.4327 12.2902 3.40336 12.0763 3.39326C11.6863 3.37578 11.2964 3.35638 10.9064 3.36552C10.3104 3.37803 9.74587 3.52314 9.25368 3.87622C8.68915 4.28269 8.37779 4.85335 8.25985 5.52728C8.2111 5.80547 8.19853 6.09345 8.19067 6.37614C8.18123 6.81997 8.1891 7.26365 8.19067 7.7078V7.87407H6.29736V10.0833H8.17808V15.6362H10.4787V10.0921H12.3531C12.449 9.35773 12.5434 8.63025 12.6424 7.87263C12.4915 7.87263 12.3562 7.87231 12.221 7.87263C11.6864 7.87471 10.4629 7.87263 10.4629 7.87263C10.4629 7.87263 10.4676 6.77764 10.4818 6.30254C10.4991 5.6517 10.8859 5.45304 11.4064 5.43428Z" fill="url(#paint1_linear_5_84)"/>
<defs>
<linearGradient id="paint0_linear_5_84" x1="1.28602e-07" y1="9.39081" x2="19" y2="9.39081" gradientUnits="userSpaceOnUse">
<stop stop-color="#7308FF"/>
<stop offset="1" stop-color="#A74AF9"/>
</linearGradient>
<linearGradient id="paint1_linear_5_84" x1="6.29736" y1="9.42914" x2="12.7053" y2="9.42914" gradientUnits="userSpaceOnUse">
<stop stop-color="#7308FF"/>
<stop offset="1" stop-color="#A74AF9"/>
</linearGradient>
</defs>
</svg>
