<svg width="238" height="78" viewBox="0 0 238 78" fill="none" xmlns="http://www.w3.org/2000/svg">
<path d="M223.738 78H13.7169C6.26697 78 0.227539 72.01 0.227539 64.6207V13.3793C0.227539 5.99002 6.26697 0 13.7169 0H223.738C231.188 0 237.228 5.99002 237.228 13.3793V64.6207C237.228 72.01 231.188 78 223.738 78Z" fill="black"/>
<path d="M45.4495 39.0213L24.8713 59.034C24.2316 58.5277 23.8052 57.75 23.8052 56.8285V21.214C23.8052 20.2925 24.2316 19.5143 24.8713 19.0085L45.4495 39.0213Z" fill="#2196F3"/>
<path d="M52.2985 32.3587L45.4493 39.0213L24.8711 19.0085C25.7291 18.3259 26.9701 18.1396 28.0644 18.7517L52.2985 32.3587Z" fill="#4CAF50"/>
<path d="M52.2985 45.6838L28.0644 59.2909C26.9701 59.903 25.7291 59.7167 24.8711 59.0341L45.4493 39.0213L52.2985 45.6838Z" fill="#F44336"/>
<path d="M59.7823 41.4836L52.2985 45.6838L45.4492 39.0213L52.2985 32.3587L59.7823 36.5589C61.7115 37.6415 61.7115 40.401 59.7823 41.4836Z" fill="#FFC107"/>
<path d="M88.5084 23.7016H93.2485V22.4097H88.5084V18.5877H93.5198V17.2779H86.9346V29.3716H93.7911V28.0618H88.5084V23.7016Z" fill="white"/>
<path d="M94.7314 18.6056H98.4398V29.3716H100.032V18.6056H103.759V17.2779H94.7314V18.6056Z" fill="white"/>
<path d="M108.95 29.3716H110.524V17.2779H108.95V29.3716Z" fill="white"/>
<path d="M111.88 18.6056H115.589V29.3716H117.181V18.6056H120.908V17.2779H111.88V18.6056Z" fill="white"/>
<path d="M130.948 28.295C128.469 28.295 127.059 25.9804 127.059 23.3966C127.059 20.7407 128.361 18.3544 130.966 18.3544C133.589 18.3544 134.855 20.8666 134.855 23.2707C134.855 26.0162 133.444 28.295 130.948 28.295ZM131.038 17.0804C127.782 17.0804 125.376 19.5926 125.376 23.4324C125.376 27.0927 127.637 29.5685 130.857 29.5685C133.969 29.5685 136.52 27.3618 136.52 23.1991C136.52 19.6105 134.367 17.0804 131.038 17.0804Z" fill="white"/>
<path d="M146.234 17.2779V22.3375C146.234 24.2219 146.27 25.6928 146.415 27.3081L146.379 27.326C145.8 26.0878 145.094 24.8139 144.19 23.3966L140.282 17.2779H138.564V29.3716H140.047V24.204C140.047 22.1943 140.011 20.7407 139.921 19.2155L139.975 19.1976C140.59 20.5074 141.404 21.8894 142.254 23.235L146.126 29.3716H147.718V17.2779H146.234Z" fill="white"/>
<path d="M85.0248 22.6643H78.8412V24.2617H83.6039C83.2209 26.5276 81.2347 28.2542 78.8412 28.2542C76.1736 28.2542 74.0109 26.1091 74.0109 23.4632C74.0109 20.8168 76.1736 18.6717 78.8412 18.6717C79.97 18.6717 81.009 19.0555 81.8309 19.6995L82.9755 18.5643C81.8569 17.6344 80.415 17.0749 78.8412 17.0749C75.284 17.0749 72.4004 19.9345 72.4004 23.4632C72.4004 26.9915 75.284 29.8516 78.8412 29.8516C82.399 29.8516 85.2826 26.9915 85.2826 23.4632C85.2826 23.193 85.2657 22.9267 85.233 22.6643H85.0248Z" fill="white"/>
<path d="M101.706 53.4905C99.6956 53.4905 98.2363 51.5742 98.2363 48.9339C98.2363 46.6394 99.325 44.3242 101.759 44.3242C104.107 44.3242 105.176 46.6859 105.176 48.8808C105.176 51.5518 103.717 53.4905 101.706 53.4905ZM101.811 41.8115C99.9563 41.8115 98.2758 42.4913 97.0788 43.7255C95.813 45.0297 95.1445 46.8587 95.1445 49.0134C95.1445 53.1291 97.7997 56.0032 101.601 56.0032C103.345 56.0032 104.965 55.3883 106.166 54.2721C107.558 52.9769 108.294 51.0852 108.294 48.8008C108.294 46.7748 107.676 45.0337 106.507 43.7653C105.329 42.4874 103.705 41.8115 101.811 41.8115Z" fill="white"/>
<path d="M119.556 48.8808C119.556 51.5518 118.096 53.4905 116.086 53.4905C114.076 53.4905 112.616 51.5742 112.616 48.9339C112.616 46.6394 113.705 44.3242 116.138 44.3242C118.487 44.3242 119.556 46.6859 119.556 48.8808ZM116.191 41.8115C114.336 41.8115 112.656 42.4913 111.459 43.7255C110.193 45.0297 109.524 46.8587 109.524 49.0134C109.524 53.1291 112.18 56.0032 115.981 56.0032C117.725 56.0032 119.345 55.3883 120.546 54.2721C121.938 52.9769 122.674 51.0852 122.674 48.8008C122.674 46.7748 122.056 45.0337 120.887 43.7653C119.709 42.4874 118.085 41.8115 116.191 41.8115Z" fill="white"/>
<path d="M133.248 46.6109C133.326 46.8493 133.36 47.1313 133.36 47.5537V49.8628C133.36 50.2684 133.302 50.669 133.196 50.9896C132.763 52.2832 131.65 53.119 130.361 53.119C127.877 53.119 126.996 50.8357 126.996 48.8808C126.996 46.2031 128.359 44.4037 130.387 44.4037C131.992 44.4037 132.917 45.5417 133.248 46.6109ZM133.678 43.363C133.035 42.6362 131.888 41.8115 129.994 41.8115C128.393 41.8115 126.892 42.4869 125.769 43.7133C124.549 45.0449 123.904 46.8772 123.904 49.0134C123.904 50.8346 124.476 52.5081 125.514 53.7261C126.576 54.9721 128.055 55.6581 129.68 55.6581C131.152 55.6581 132.468 55.1265 133.386 54.181V54.5609C133.386 57.2851 132.139 58.6665 129.68 58.6665C127.86 58.6665 126.615 58.0024 126.164 57.717L125.75 57.4546L124.934 59.9712L125.172 60.1318C126.2 60.8267 127.898 61.2587 129.602 61.2587C131.033 61.2587 133.04 60.9739 134.466 59.6204C135.803 58.4102 136.399 56.5147 136.399 53.4726V46.0139C136.399 44.4792 136.448 43.4783 136.503 42.5053L136.526 42.1036H133.747L133.678 43.363Z" fill="white"/>
<path d="M139.463 55.7112H142.529V36.1046H139.463V55.7112Z" fill="white"/>
<path d="M172.818 46.085C172.205 46.085 171.709 46.0492 171.312 45.9753V39.6334C171.744 39.5617 172.385 39.5198 173.08 39.5198C174.806 39.5198 176.864 40.0614 176.864 42.6429C176.864 44.8625 175.427 46.085 172.818 46.085ZM178.231 38.511C177.077 37.4603 175.326 36.9276 173.027 36.9276C171.459 36.9276 169.966 37.0457 168.589 37.2779L168.272 37.3316V55.7112H171.312V48.6251C171.784 48.6928 172.287 48.7034 172.765 48.7034C175.179 48.7034 177.193 47.9632 178.436 46.6221C179.409 45.6066 179.904 44.2319 179.904 42.5372C179.904 40.8872 179.31 39.4577 178.231 38.511Z" fill="white"/>
<path d="M181.999 55.7112H185.064V36.1046H181.999V55.7112Z" fill="white"/>
<path d="M194.859 49.151V51.0041C194.859 51.1876 194.819 51.4086 194.747 51.6257C194.454 52.4985 193.569 53.5168 192.043 53.5168C191.622 53.5168 190.249 53.3837 190.249 51.6677C190.249 51.0724 190.441 50.5806 190.817 50.2068C191.523 49.5069 192.882 49.1516 194.859 49.151ZM197.845 52.2518V47.4474C197.845 45.8897 197.514 44.6252 196.86 43.6892C195.99 42.4432 194.572 41.8115 192.646 41.8115C191.028 41.8115 189.433 42.2501 188.272 43.0155L188.026 43.1772L188.803 45.46L189.213 45.1909C190.066 44.6314 191.222 44.2974 192.305 44.2974C193.951 44.2974 194.77 45.1086 194.805 46.7765C191.885 46.8168 189.684 47.5016 188.432 48.7639C187.604 49.5986 187.184 50.665 187.184 51.9334C187.184 52.9993 187.567 53.9946 188.263 54.7354C189.042 55.5646 190.141 56.0032 191.441 56.0032C192.845 56.0032 194.178 55.4667 195.108 54.5468L195.239 55.7112H198.129L198.049 55.2636C197.912 54.4999 197.845 53.5146 197.845 52.2518Z" fill="white"/>
<path d="M208.507 42.1035L205.906 49.9002C205.732 50.4132 205.573 50.9464 205.429 51.4394C205.279 50.9476 205.112 50.4306 204.947 49.9444L202.079 42.1035H198.739L203.629 54.4506C203.663 54.5435 203.764 54.826 203.764 54.9318C203.761 54.9989 203.665 55.2188 203.613 55.3374C203.193 56.2942 202.509 57.214 201.775 57.8026C201 58.4678 200.198 58.7711 199.889 58.8707L199.537 58.9842L200.314 61.6329L200.651 61.5708C201.013 61.5042 202.296 61.192 203.662 59.9695C205.204 58.6155 206.328 56.5476 208.115 51.7756L211.766 42.1035H208.507Z" fill="white"/>
<path d="M93.9912 44.2901H82.971V47.458H90.8063C90.073 51.1149 86.9191 53.7406 83.2062 53.7406C78.9287 53.7406 75.4482 50.2118 75.4482 45.874C75.4482 41.5362 78.9287 38.0074 83.2062 38.0074C84.9679 38.0074 86.6269 38.5905 88.005 39.6932L88.1714 39.8264L90.3911 37.5772L90.1999 37.4149C88.2464 35.7543 85.7627 34.8396 83.2062 34.8396C77.1997 34.8396 72.313 39.7895 72.313 45.874C72.313 51.9586 77.1997 56.9085 83.2062 56.9085C89.2133 56.9085 94.1 51.9586 94.1 45.874C94.1 45.4124 94.0718 44.9486 94.016 44.4954L93.9912 44.2901Z" fill="white"/>
<path d="M147.341 49.0917C147.163 47.6946 148.032 46.414 149.426 45.9003C150.693 45.4331 151.872 45.7834 152.663 46.9416C150.854 47.6723 149.11 48.3772 147.341 49.0917ZM147.882 43.8195C145.2 45.0594 144.12 47.7299 144.528 50.3277C144.99 53.2717 147.177 55.2356 150.083 55.4544C152.451 55.6328 154.357 54.7729 155.812 52.7553C155.089 52.2775 154.42 51.8344 153.761 51.3974C151.25 53.5705 148.9 53.5146 147.739 51.2318C150.45 50.124 153.157 49.0179 155.852 47.9168C155.086 44.2336 151.221 42.2759 147.882 43.8195Z" fill="white"/>
</svg>
