<svg width="19" height="19" viewBox="0 0 19 19" fill="none" xmlns="http://www.w3.org/2000/svg">
<path d="M9.49855 1.22592C4.93809 1.22592 1.22578 4.93771 1.22578 9.49985C1.22578 14.0623 4.93809 17.7741 9.49855 17.7741C14.0619 17.7741 17.7742 14.0623 17.7742 9.49985C17.7742 4.93771 14.0619 1.22592 9.49855 1.22592ZM9.49855 19C6.9627 19 4.57789 18.0116 2.78275 16.2173C0.987612 14.423 0 12.0376 0 9.49985C0 6.96243 0.987612 4.57666 2.78275 2.78236C4.57789 0.988073 6.9627 0 9.49855 0C12.0373 0 14.4221 0.988073 16.2172 2.78236C18.0124 4.57666 19 6.96243 19 9.49985C19 12.0376 18.0124 14.423 16.2172 16.2173C14.4221 18.0116 12.0373 19 9.49855 19Z" fill="url(#paint0_linear_5_89)"/>
<path d="M5.63045 3.97188C6.30404 3.97188 6.84744 4.51759 6.84744 5.18884C6.84744 5.86123 6.30404 6.40781 5.63045 6.40781C4.95686 6.40781 4.41064 5.86123 4.41064 5.18884C4.41064 4.51759 4.95686 3.97188 5.63045 3.97188ZM4.57761 7.33012H6.68044V14.0876H4.57761V7.33012Z" fill="url(#paint1_linear_5_89)"/>
<path d="M7.99939 7.3304H10.0136V8.25462H10.0395C10.3215 7.72297 11.0063 7.16317 12.0307 7.16317C14.1571 7.16317 14.5484 8.56181 14.5484 10.3818V14.088H12.4508V10.8028C12.4508 10.0183 12.4335 9.01042 11.3573 9.01042C10.2639 9.01042 10.097 9.86422 10.097 10.7453V14.088H7.99939V7.3304Z" fill="url(#paint2_linear_5_89)"/>
<defs>
<linearGradient id="paint0_linear_5_89" x1="1.28602e-07" y1="9.39081" x2="19" y2="9.39081" gradientUnits="userSpaceOnUse">
<stop stop-color="#7308FF"/>
<stop offset="1" stop-color="#A74AF9"/>
</linearGradient>
<linearGradient id="paint1_linear_5_89" x1="4.41064" y1="8.9716" x2="6.84744" y2="8.9716" gradientUnits="userSpaceOnUse">
<stop stop-color="#7308FF"/>
<stop offset="1" stop-color="#A74AF9"/>
</linearGradient>
<linearGradient id="paint2_linear_5_89" x1="7.99939" y1="10.5858" x2="14.5484" y2="10.5858" gradientUnits="userSpaceOnUse">
<stop stop-color="#7308FF"/>
<stop offset="1" stop-color="#A74AF9"/>
</linearGradient>
</defs>
</svg>
