<svg width="20" height="20" viewBox="0 0 20 20" fill="none" xmlns="http://www.w3.org/2000/svg">
<path d="M9.99907 1.29025C5.19811 1.29025 1.29122 5.19754 1.29122 10.0001C1.29122 14.8027 5.19811 18.7098 9.99907 18.7098C14.8019 18.7098 18.7088 14.8027 18.7088 10.0001C18.7088 5.19754 14.8019 1.29025 9.99907 1.29025ZM9.99907 20C7.32982 20 4.8176 18.9599 2.92972 17.071C1.04 15.1824 0 12.671 0 10.0001C0 7.329 1.04 4.81762 2.92972 2.92896C4.8176 1.04011 7.32982 0 9.99907 0C12.672 0 15.1824 1.04011 17.0703 2.92896C18.96 4.81762 20 7.329 20 10.0001C20 12.671 18.96 15.1824 17.0703 17.071C15.1824 18.9599 12.672 20 9.99907 20Z" fill="url(#paint0_linear_1_273)"/>
<path fill-rule="evenodd" clip-rule="evenodd" d="M11.2993 12.5819C11.2193 12.6796 11.1302 12.7429 11.0319 12.7685C10.9046 12.8011 10.7863 12.7666 10.7063 12.7345C9.50023 12.25 8.61797 11.3677 8.61797 11.3677C8.61797 11.3677 7.73752 10.486 7.25363 9.28035C7.22089 9.20022 7.18634 9.08299 7.21908 8.95612C7.24455 8.85688 7.30821 8.76915 7.40645 8.68827C8.48882 7.78308 8.80898 7.68866 8.57977 7.21974C7.55561 5.12 7.54833 4.91225 7.31185 4.81858C6.68789 4.56984 5.98026 5.02039 5.87839 5.08494C4.87243 5.72674 4.65958 7.07136 4.67959 7.53842C4.74326 8.96168 5.51093 10.9281 7.18815 12.775C9.00545 14.6123 11.0519 15.4941 12.449 15.3084C12.6273 15.2847 14.2972 15.1203 14.903 14.1085C14.9721 13.9931 15.416 13.2947 15.1686 12.675C15.0758 12.4398 14.9212 12.3139 12.7674 11.4079C12.6582 11.3617 12.4399 11.2015 11.2993 12.5819Z" fill="url(#paint1_linear_1_273)"/>
<defs>
<linearGradient id="paint0_linear_1_273" x1="1.35371e-07" y1="9.88506" x2="20" y2="9.88506" gradientUnits="userSpaceOnUse">
<stop stop-color="#7308FF"/>
<stop offset="1" stop-color="#A74AF9"/>
</linearGradient>
<linearGradient id="paint1_linear_1_273" x1="4.67834" y1="9.97766" x2="15.2429" y2="9.97766" gradientUnits="userSpaceOnUse">
<stop stop-color="#7308FF"/>
<stop offset="1" stop-color="#A74AF9"/>
</linearGradient>
</defs>
</svg>
